<svg width="24.000000" height="24.000000" viewBox="0 0 24 24" fill="none" xmlns="http://www.w3.org/2000/svg" xmlns:xlink="http://www.w3.org/1999/xlink">
	<desc>
			Created with Pixso.
	</desc>
	<defs>
		<clipPath id="clip1_156">
			<rect id="mdi:airport-shuttle" width="24.000000" height="24.000000" fill="white" fill-opacity="0"/>
		</clipPath>
	</defs>
	<rect id="mdi:airport-shuttle" width="24.000000" height="24.000000" fill="#FFFFFF" fill-opacity="0"/>
	<g clip-path="url(#clip1_156)">
		<path id="Vector" d="M21.57 12.66C21.43 12.26 21.05 12 20.6 12L13.41 12C12.95 12 12.58 12.26 12.43 12.66L11 16.77L11 22.28C11 22.66 11.32 23 11.7 23L12.32 23C12.7 23 13 22.62 13 22.24L13 21L21 21L21 22.24C21 22.62 21.31 23 21.69 23L22.3 23C22.68 23 23 22.66 23 22.28L23 16.77L21.57 12.66ZM13.41 13L20.6 13L21.63 16L12.38 16L13.41 13ZM13 19C12.45 19 12 18.54 12 18C12 17.45 12.45 17 13 17C13.55 17 14 17.45 14 18C14 18.54 13.55 19 13 19ZM21 19C20.45 19 20 18.54 20 18C20 17.45 20.45 17 21 17C21.55 17 22 17.45 22 18C22 18.54 21.55 19 21 19ZM6.66 14.53L7 17L5.95 18.06L4.19 14.88L1 13.11L2.06 12.03L4.56 12.4L8.42 8.52L1 4.61L2.42 3.2L11.61 5.32L15.5 1.43C16.06 0.85 17.06 0.85 17.62 1.43C18.2 2.02 18.2 2.99 17.62 3.55L13.73 7.44L14.55 11L13.41 11C12.54 11 11.79 11.5 11.5 12.31L11.47 12.37L10.56 10.63L6.66 14.53Z" fill="#DEE2E6" fill-opacity="1.000000" fill-rule="nonzero"/>
	</g>
</svg>
