<svg width="24.000000" height="24.000000" viewBox="0 0 24 24" fill="none" xmlns="http://www.w3.org/2000/svg" xmlns:xlink="http://www.w3.org/1999/xlink">
	<desc>
			Created with Pixso.
	</desc>
	<defs>
		<clipPath id="clip1_124">
			<rect id="fluent-mdl2:breakfast" width="24.000000" height="24.000000" fill="white" fill-opacity="0"/>
		</clipPath>
	</defs>
	<rect id="fluent-mdl2:breakfast" width="24.000000" height="24.000000" fill="#FFFFFF" fill-opacity="0"/>
	<g clip-path="url(#clip1_124)">
		<path id="Vector" d="M16.5 6.93C16.29 6.93 16.12 6.86 15.97 6.71C15.82 6.56 15.75 6.39 15.75 6.18C15.75 5.78 15.82 5.4 15.97 5.03C16.12 4.67 16.33 4.34 16.62 4.06L17.55 3.12C17.85 2.83 18 2.47 18 2.06C18 1.85 18.07 1.68 18.22 1.53C18.37 1.38 18.54 1.31 18.75 1.31C18.95 1.31 19.12 1.38 19.27 1.53C19.42 1.68 19.5 1.85 19.5 2.06C19.5 2.46 19.42 2.84 19.27 3.21C19.12 3.57 18.91 3.9 18.62 4.18L17.69 5.12C17.39 5.41 17.25 5.77 17.25 6.18C17.25 6.39 17.17 6.56 17.02 6.71C16.87 6.86 16.7 6.93 16.5 6.93ZM12 6.93C11.79 6.93 11.62 6.86 11.47 6.71C11.32 6.56 11.25 6.39 11.25 6.18C11.25 5.78 11.32 5.4 11.47 5.03C11.62 4.67 11.83 4.34 12.12 4.06L13.05 3.12C13.35 2.83 13.5 2.47 13.5 2.06C13.5 1.85 13.57 1.68 13.72 1.53C13.87 1.38 14.04 1.31 14.25 1.31C14.45 1.31 14.62 1.38 14.77 1.53C14.92 1.68 15 1.85 15 2.06C15 2.46 14.92 2.84 14.77 3.21C14.62 3.57 14.41 3.9 14.12 4.18L13.19 5.12C12.89 5.41 12.75 5.77 12.75 6.18C12.75 6.39 12.67 6.56 12.52 6.71C12.37 6.86 12.2 6.93 12 6.93ZM21.75 9C22.06 9 22.35 9.05 22.62 9.17C22.9 9.29 23.14 9.45 23.34 9.65C23.54 9.85 23.7 10.09 23.82 10.37C23.94 10.64 24 10.93 24 11.25L24 15.75C24 16.06 23.94 16.35 23.82 16.62C23.7 16.9 23.54 17.14 23.34 17.34C23.14 17.54 22.9 17.7 22.62 17.82C22.35 17.94 22.06 18 21.75 18L21.08 18C21.06 18.05 21.05 18.1 21.04 18.15C21.03 18.19 21.02 18.24 21 18.29L21 18.75C21 19.26 20.9 19.75 20.7 20.2C20.51 20.65 20.24 21.05 19.89 21.39C19.55 21.74 19.15 22.01 18.7 22.2C18.25 22.4 17.76 22.5 17.25 22.5L12.75 22.5C12.14 22.5 11.57 22.36 11.06 22.08C10.54 21.81 10.11 21.45 9.77 21L3.91 21C3.39 21 2.91 20.9 2.46 20.7C2 20.51 1.6 20.24 1.26 19.91C0.92 19.57 0.65 19.17 0.45 18.71C0.26 18.25 0.16 17.76 0.16 17.25L0.16 16.5L3.16 16.5C3.16 15.88 3.28 15.3 3.51 14.75C3.75 14.2 4.07 13.73 4.48 13.32C4.9 12.91 5.37 12.59 5.91 12.35C6.45 12.1 7.03 11.99 7.66 12C7.89 12 8.12 12.01 8.34 12.05C8.56 12.09 8.78 12.15 9 12.22L9 7.5L21 7.5L21 9L21.75 9ZM7.66 13.5C7.25 13.5 6.86 13.57 6.5 13.73C6.14 13.89 5.82 14.1 5.54 14.37C5.26 14.65 5.04 14.96 4.89 15.32C4.75 15.68 4.67 16.07 4.66 16.5L9 16.5L9 13.82C8.79 13.72 8.58 13.64 8.36 13.59C8.14 13.53 7.91 13.5 7.66 13.5ZM3.91 19.5L9.08 19.5C9.02 19.27 9 19.02 9 18.75L9 18L1.79 18C1.87 18.21 1.98 18.41 2.12 18.59C2.26 18.77 2.42 18.93 2.6 19.07C2.78 19.21 2.98 19.32 3.21 19.38C3.43 19.44 3.67 19.48 3.91 19.5ZM9.33 20.28L9.33 20.29L9.35 20.32L9.35 20.3L9.33 20.28ZM19.5 18.75L19.5 9L10.5 9L10.5 18.75C10.5 19.06 10.55 19.35 10.67 19.62C10.79 19.9 10.95 20.14 11.15 20.34C11.35 20.54 11.59 20.7 11.87 20.82C12.14 20.94 12.43 21 12.75 21L17.25 21C17.56 21 17.85 20.94 18.12 20.82C18.4 20.7 18.64 20.54 18.84 20.34C19.04 20.14 19.2 19.9 19.32 19.62C19.44 19.35 19.5 19.06 19.5 18.75ZM22.5 15.75L22.5 11.25C22.5 11.04 22.42 10.87 22.27 10.72C22.12 10.57 21.95 10.5 21.75 10.5L21 10.5L21 16.5L21.75 16.5C21.95 16.5 22.12 16.42 22.27 16.27C22.42 16.12 22.5 15.95 22.5 15.75Z" fill="#DEE2E6" fill-opacity="1.000000" fill-rule="nonzero"/>
	</g>
</svg>
