<svg width="24.000000" height="24.000000" viewBox="0 0 24 24" fill="none" xmlns="http://www.w3.org/2000/svg" xmlns:xlink="http://www.w3.org/1999/xlink">
	<desc>
			Created with Pixso.
	</desc>
	<defs>
		<clipPath id="clip1_174">
			<rect id="cil:child" width="24.000000" height="24.000000" fill="white" fill-opacity="0"/>
		</clipPath>
	</defs>
	<rect id="cil:child" width="24.000000" height="24.000000" fill="#FFFFFF" fill-opacity="0"/>
	<g clip-path="url(#clip1_174)">
		<path id="Vector" d="M19.94 9.37C19.38 8.07 18.52 6.93 17.42 6.04C16.32 5.15 15.02 4.54 13.63 4.27L14.88 2.27L13.61 1.47L11.95 4.12C10.27 4.13 8.62 4.63 7.22 5.56C5.81 6.5 4.71 7.82 4.05 9.37C3.17 9.39 2.33 9.75 1.71 10.38C1.09 11.01 0.75 11.86 0.75 12.75C0.75 13.63 1.09 14.48 1.71 15.11C2.33 15.74 3.17 16.1 4.05 16.12C4.72 17.68 5.82 19 7.24 19.94C8.65 20.87 10.3 21.37 12 21.37C13.69 21.37 15.34 20.87 16.75 19.94C18.17 19 19.27 17.68 19.94 16.12C20.82 16.1 21.66 15.74 22.28 15.11C22.9 14.48 23.25 13.63 23.25 12.75C23.25 11.86 22.9 11.01 22.28 10.38C21.66 9.75 20.82 9.39 19.94 9.37ZM21.21 14.06C20.86 14.41 20.4 14.61 19.91 14.62L18.94 14.64L18.55 15.53C18.01 16.82 17.09 17.92 15.93 18.69C14.76 19.46 13.39 19.87 12 19.87C10.6 19.87 9.23 19.46 8.06 18.69C6.9 17.92 5.98 16.82 5.44 15.53L5.05 14.64L4.08 14.62C3.59 14.61 3.12 14.41 2.78 14.06C2.44 13.71 2.24 13.24 2.24 12.75C2.24 12.25 2.44 11.78 2.78 11.43C3.12 11.08 3.59 10.88 4.08 10.87L5.05 10.85L5.44 9.96C5.98 8.67 6.9 7.57 8.06 6.8C9.23 6.03 10.6 5.62 12 5.62C13.39 5.62 14.76 6.03 15.93 6.8C17.09 7.57 18.01 8.67 18.55 9.96L18.94 10.85L19.91 10.87C20.27 10.88 20.63 10.99 20.93 11.2C21.23 11.41 21.47 11.7 21.61 12.04C21.74 12.38 21.78 12.75 21.71 13.11C21.64 13.47 21.46 13.8 21.21 14.06Z" fill="#DEE2E6" fill-opacity="1.000000" fill-rule="nonzero"/>
		<path id="Vector" d="M7.87 10.87L9.75 10.87L9.75 12.75L7.87 12.75L7.87 10.87ZM14.25 10.87L16.12 10.87L16.12 12.75L14.25 12.75L14.25 10.87ZM12 18C12.49 18 12.98 17.9 13.43 17.71C13.89 17.52 14.3 17.24 14.65 16.9C14.99 16.55 15.27 16.14 15.46 15.68C15.65 15.23 15.75 14.74 15.75 14.25L8.25 14.25C8.25 14.74 8.34 15.23 8.53 15.68C8.72 16.14 9 16.55 9.34 16.9C10.05 17.6 11 18 12 18Z" fill="#DEE2E6" fill-opacity="1.000000" fill-rule="nonzero"/>
	</g>
</svg>
