<svg width="24.000000" height="24.000000" viewBox="0 0 24 24" fill="none" xmlns="http://www.w3.org/2000/svg" xmlns:xlink="http://www.w3.org/1999/xlink">
	<desc>
			Created with Pixso.
	</desc>
	<defs>
		<clipPath id="clip1_162">
			<rect id="fluent-mdl2:security-group" width="24.000000" height="24.000000" fill="white" fill-opacity="0"/>
		</clipPath>
	</defs>
	<rect id="fluent-mdl2:security-group" width="24.000000" height="24.000000" fill="#FFFFFF" fill-opacity="0"/>
	<g clip-path="url(#clip1_162)">
		<path id="Vector" d="M10.16 17.12C10.66 17.37 11.12 17.69 11.54 18.07C11.95 18.44 12.3 18.86 12.59 19.33C12.88 19.8 13.1 20.3 13.26 20.83C13.42 21.36 13.5 21.92 13.5 22.49L12 22.49C12 21.88 11.88 21.3 11.64 20.75C11.41 20.2 11.09 19.73 10.68 19.32C10.28 18.91 9.8 18.59 9.24 18.35C8.69 18.1 8.1 17.99 7.5 17.99C6.87 17.99 6.29 18.11 5.75 18.35C5.21 18.58 4.73 18.9 4.32 19.31C3.91 19.71 3.58 20.19 3.35 20.75C3.11 21.3 3 21.89 3 22.49L1.5 22.49C1.5 21.92 1.57 21.37 1.73 20.84C1.89 20.31 2.11 19.81 2.4 19.33C2.69 18.85 3.04 18.43 3.45 18.07C3.87 17.7 4.33 17.38 4.83 17.12C4.26 16.69 3.81 16.17 3.49 15.53C3.17 14.9 3 14.22 3 13.49C3 12.88 3.11 12.3 3.35 11.75C3.58 11.2 3.9 10.73 4.31 10.32C4.71 9.91 5.19 9.59 5.74 9.35C6.28 9.1 6.87 8.99 7.5 8.99C8.21 8.99 8.89 9.16 9.52 9.48C10.16 9.8 10.69 10.25 11.12 10.83C11.41 10.25 11.79 9.73 12.25 9.26C12.71 8.8 13.24 8.42 13.83 8.13C13.26 7.7 12.81 7.17 12.49 6.53C12.17 5.9 12 5.22 12 4.49C12 3.88 12.11 3.3 12.35 2.75C12.58 2.2 12.9 1.73 13.31 1.32C13.71 0.91 14.19 0.59 14.74 0.35C15.28 0.1 15.87 -0.01 16.5 -0.01C17.11 -0.01 17.69 0.11 18.24 0.35C18.79 0.58 19.26 0.9 19.67 1.31C20.08 1.71 20.4 2.19 20.64 2.75C20.89 3.3 21 3.89 21 4.49C21 5.23 20.83 5.92 20.49 6.57C20.16 7.22 19.69 7.75 19.08 8.17C19.45 8.37 19.8 8.6 20.14 8.87C20.48 9.13 20.78 9.43 21.05 9.77C21.33 10.1 21.57 10.46 21.79 10.82C22.01 11.19 22.18 11.58 22.3 11.99L20.73 11.99C20.55 11.59 20.32 11.21 20.03 10.85C19.75 10.49 19.41 10.17 19.04 9.89C18.66 9.6 18.26 9.39 17.83 9.24C17.4 9.09 16.96 9.01 16.5 9.01C15.87 9.01 15.29 9.12 14.75 9.36C14.21 9.59 13.73 9.91 13.32 10.32C12.91 10.73 12.58 11.2 12.35 11.75C12.11 12.3 12 12.88 12 13.49C12 14.21 11.83 14.89 11.51 15.52C11.19 16.16 10.74 16.69 10.16 17.12ZM16.5 1.49C16.08 1.49 15.69 1.57 15.33 1.73C14.98 1.89 14.66 2.1 14.37 2.37C14.09 2.65 13.88 2.96 13.73 3.32C13.58 3.68 13.5 4.07 13.5 4.49C13.5 4.91 13.57 5.3 13.73 5.66C13.89 6.01 14.1 6.33 14.37 6.62C14.65 6.9 14.96 7.11 15.32 7.26C15.68 7.41 16.07 7.49 16.5 7.49C16.91 7.49 17.3 7.42 17.66 7.26C18.01 7.1 18.33 6.89 18.62 6.62C18.9 6.34 19.11 6.03 19.26 5.67C19.41 5.31 19.49 4.92 19.5 4.49C19.5 4.08 19.42 3.69 19.26 3.33C19.1 2.98 18.89 2.66 18.62 2.37C18.34 2.09 18.03 1.88 17.67 1.73C17.31 1.58 16.92 1.5 16.5 1.49ZM4.5 13.49C4.5 13.91 4.57 14.3 4.73 14.66C4.89 15.01 5.1 15.33 5.37 15.62C5.65 15.9 5.96 16.11 6.32 16.26C6.68 16.41 7.07 16.49 7.5 16.49C7.91 16.49 8.3 16.42 8.66 16.26C9.01 16.1 9.33 15.89 9.62 15.62C9.9 15.34 10.11 15.03 10.26 14.67C10.41 14.31 10.49 13.92 10.5 13.49C10.5 13.08 10.42 12.69 10.26 12.33C10.1 11.98 9.89 11.66 9.62 11.37C9.34 11.09 9.03 10.88 8.67 10.73C8.31 10.58 7.92 10.5 7.5 10.49C7.08 10.49 6.69 10.57 6.33 10.73C5.98 10.89 5.66 11.1 5.37 11.37C5.09 11.65 4.88 11.96 4.73 12.32C4.58 12.68 4.5 13.07 4.5 13.49ZM24 17.99L24 23.99L16.5 23.99L16.5 17.99L17.25 17.99L17.25 16.49C17.25 16.08 17.32 15.69 17.48 15.33C17.64 14.98 17.85 14.66 18.12 14.37C18.4 14.09 18.71 13.88 19.07 13.73C19.43 13.58 19.82 13.5 20.25 13.49C20.66 13.49 21.05 13.57 21.41 13.73C21.76 13.89 22.08 14.1 22.37 14.37C22.65 14.65 22.86 14.96 23.01 15.32C23.16 15.68 23.24 16.07 23.25 16.49L23.25 17.99L24 17.99ZM18.75 17.99L21.75 17.99L21.75 16.49C21.75 16.28 21.71 16.09 21.63 15.91C21.55 15.73 21.44 15.57 21.31 15.44C21.18 15.31 21.02 15.2 20.83 15.11C20.64 15.03 20.45 14.99 20.25 14.99C20.03 14.99 19.84 15.03 19.66 15.11C19.48 15.19 19.32 15.3 19.19 15.43C19.06 15.56 18.95 15.72 18.86 15.91C18.78 16.1 18.74 16.29 18.75 16.49L18.75 17.99ZM22.5 19.49L18 19.49L18 22.49L22.5 22.49L22.5 19.49Z" fill="#DEE2E6" fill-opacity="1.000000" fill-rule="nonzero"/>
	</g>
</svg>
