<svg width="24.000000" height="24.000000" viewBox="0 0 24 24" fill="none" xmlns="http://www.w3.org/2000/svg" xmlns:xlink="http://www.w3.org/1999/xlink">
	<desc>
			Created with Pixso.
	</desc>
	<defs>
		<clipPath id="clip1_116">
			<rect id="iconoir:gym" width="24.000000" height="24.000000" fill="white" fill-opacity="0"/>
		</clipPath>
	</defs>
	<rect id="iconoir:gym" width="24.000000" height="24.000000" fill="#FFFFFF" fill-opacity="0"/>
	<g clip-path="url(#clip1_116)">
		<path id="Vector" d="M4.6 7C4.44 7 4.28 7.06 4.17 7.17C4.06 7.28 4 7.44 4 7.6L4 16.4C4 16.47 4.01 16.55 4.04 16.62C4.07 16.7 4.12 16.76 4.17 16.82C4.23 16.87 4.29 16.92 4.37 16.95C4.44 16.98 4.52 17 4.6 17L7.39 17C7.47 17 7.55 16.98 7.62 16.95C7.7 16.92 7.76 16.87 7.82 16.82C7.87 16.76 7.92 16.7 7.95 16.62C7.98 16.55 8 16.47 8 16.4L8 7.6C8 7.44 7.93 7.28 7.82 7.17C7.71 7.06 7.55 7 7.39 7L4.6 7ZM16.6 7C16.44 7 16.28 7.06 16.17 7.17C16.06 7.28 16 7.44 16 7.6L16 16.4C16 16.47 16.01 16.55 16.04 16.62C16.07 16.7 16.12 16.76 16.17 16.82C16.23 16.87 16.29 16.92 16.37 16.95C16.44 16.98 16.52 17 16.6 17L19.4 17C19.47 17 19.55 16.98 19.62 16.95C19.7 16.92 19.76 16.87 19.82 16.82C19.87 16.76 19.92 16.7 19.95 16.62C19.98 16.55 20 16.47 20 16.4L20 7.6C20 7.44 19.93 7.28 19.82 7.17C19.71 7.06 19.55 7 19.4 7L16.6 7Z" stroke="#DEE2E6" stroke-opacity="1.000000" stroke-width="1.500000" stroke-linejoin="round"/>
		<path id="Vector" d="M1 9.6C1 9.44 1.06 9.28 1.17 9.17C1.28 9.06 1.44 9 1.6 9L3.39 9C3.55 9 3.71 9.06 3.82 9.17C3.93 9.28 4 9.44 4 9.6L4 14.4C4 14.55 3.93 14.71 3.82 14.82C3.71 14.93 3.55 15 3.39 15L1.6 15C1.44 15 1.28 14.93 1.17 14.82C1.06 14.71 1 14.55 1 14.4L1 9.6ZM23 9.6C23 9.44 22.93 9.28 22.82 9.17C22.71 9.06 22.55 9 22.4 9L20.6 9C20.44 9 20.28 9.06 20.17 9.17C20.06 9.28 20 9.44 20 9.6L20 14.4C20 14.55 20.06 14.71 20.17 14.82C20.28 14.93 20.44 15 20.6 15L22.4 15C22.55 15 22.71 14.93 22.82 14.82C22.93 14.71 23 14.55 23 14.4L23 9.6ZM8 12L16 " stroke="#DEE2E6" stroke-opacity="1.000000" stroke-width="1.500000" stroke-linejoin="round" stroke-linecap="round"/>
	</g>
</svg>
