<svg width="24.000000" height="24.000000" viewBox="0 0 24 24" fill="none" xmlns="http://www.w3.org/2000/svg" xmlns:xlink="http://www.w3.org/1999/xlink">
	<desc>
			Created with Pixso.
	</desc>
	<defs>
		<clipPath id="clip1_139">
			<rect id="fluent-mdl2:parking-location" width="24.000000" height="24.000000" fill="white" fill-opacity="0"/>
		</clipPath>
	</defs>
	<rect id="fluent-mdl2:parking-location" width="24.000000" height="24.000000" fill="#FFFFFF" fill-opacity="0"/>
	<g clip-path="url(#clip1_139)">
		<path id="Vector" d="M23.66 17.09C23.88 17.59 24 18.11 24 18.65L24 19.5C24 20.09 23.83 20.63 23.51 21.12C23.19 21.62 22.76 21.98 22.23 22.23C21.98 22.76 21.62 23.19 21.12 23.51C20.63 23.83 20.09 24 19.5 24C18.96 24 18.46 23.86 18 23.6C17.53 23.33 17.17 22.96 16.89 22.5L8.6 22.5C8.32 22.96 7.96 23.33 7.5 23.6C7.03 23.86 6.53 24 6 24C5.46 24 4.96 23.86 4.5 23.6C4.03 23.33 3.67 22.96 3.39 22.5L1.5 22.5C1.28 22.5 1.09 22.46 0.91 22.38C0.73 22.3 0.57 22.19 0.44 22.06C0.31 21.93 0.2 21.77 0.11 21.58C0.03 21.39 -0.01 21.2 0 21L0 18C0 17.37 0.11 16.78 0.35 16.24C0.58 15.69 0.9 15.21 1.31 14.81C1.71 14.4 2.19 14.08 2.74 13.85C3.28 13.61 3.87 13.5 4.5 13.5L4.93 13.5L8.77 9.65C8.98 9.44 9.23 9.28 9.5 9.17C9.77 9.06 10.06 9 10.37 9L21 9L21 10.5L20.66 10.5L23.66 17.09ZM15 10.5L15 13.5L20.37 13.5L19.21 10.93C19.15 10.8 19.06 10.69 18.93 10.61C18.81 10.53 18.67 10.5 18.52 10.5L15 10.5ZM10.37 10.5C10.16 10.5 9.99 10.57 9.84 10.72L7.06 13.5L13.5 13.5L13.5 10.5L10.37 10.5ZM6 22.5C6.21 22.5 6.4 22.46 6.58 22.38C6.76 22.3 6.92 22.19 7.05 22.06C7.18 21.93 7.29 21.77 7.38 21.58C7.46 21.39 7.5 21.2 7.5 21C7.5 20.78 7.46 20.59 7.38 20.41C7.3 20.23 7.19 20.07 7.06 19.94C6.93 19.81 6.77 19.7 6.58 19.61C6.39 19.53 6.2 19.49 6 19.5C5.78 19.5 5.59 19.53 5.41 19.61C5.23 19.69 5.07 19.8 4.94 19.93C4.81 20.06 4.7 20.22 4.61 20.41C4.53 20.6 4.49 20.79 4.5 21C4.5 21.21 4.53 21.4 4.61 21.58C4.69 21.76 4.8 21.92 4.93 22.05C5.06 22.18 5.22 22.29 5.41 22.38C5.6 22.46 5.79 22.5 6 22.5ZM6 18C6.41 18 6.8 18.07 7.16 18.23C7.51 18.39 7.83 18.6 8.12 18.87C8.4 19.15 8.61 19.46 8.76 19.82C8.91 20.18 8.99 20.57 9 21L13.5 21L13.5 15L4.5 15C4.08 15 3.69 15.07 3.33 15.23C2.98 15.39 2.66 15.6 2.37 15.87C2.09 16.15 1.88 16.46 1.73 16.82C1.58 17.18 1.5 17.57 1.5 18L1.5 21L3 21C3 20.58 3.07 20.19 3.23 19.83C3.39 19.48 3.6 19.16 3.87 18.87C4.15 18.59 4.46 18.38 4.82 18.23C5.18 18.08 5.57 18 6 18ZM19.5 22.5C19.71 22.5 19.9 22.46 20.08 22.38C20.26 22.3 20.42 22.19 20.55 22.06C20.68 21.93 20.79 21.77 20.88 21.58C20.96 21.39 21 21.2 21 21C21 20.78 20.96 20.59 20.88 20.41C20.8 20.23 20.69 20.07 20.56 19.94C20.43 19.81 20.27 19.7 20.08 19.61C19.89 19.53 19.7 19.49 19.5 19.5C19.28 19.5 19.09 19.53 18.91 19.61C18.73 19.69 18.57 19.8 18.44 19.93C18.31 20.06 18.2 20.22 18.11 20.41C18.03 20.6 17.99 20.79 18 21C18 21.21 18.03 21.4 18.11 21.58C18.19 21.76 18.3 21.92 18.43 22.05C18.56 22.18 18.72 22.29 18.91 22.38C19.1 22.46 19.29 22.5 19.5 22.5ZM22.5 18.65C22.5 18.33 22.43 18.02 22.3 17.71L21.05 15L15 15L15 21L16.5 21C16.5 20.58 16.57 20.19 16.73 19.83C16.89 19.48 17.1 19.16 17.37 18.87C17.65 18.59 17.96 18.38 18.32 18.23C18.68 18.08 19.07 18 19.5 18C19.82 18 20.14 18.05 20.44 18.15C20.75 18.25 21.03 18.39 21.28 18.58C21.53 18.77 21.75 18.99 21.93 19.25C22.12 19.51 22.26 19.8 22.37 20.12C22.45 19.91 22.5 19.7 22.5 19.5L22.5 18.65Z" fill="#DEE2E6" fill-opacity="1.000000" fill-rule="nonzero"/>
	</g>
</svg>
