<svg width="24.000000" height="24.000000" viewBox="0 0 24 24" fill="none" xmlns="http://www.w3.org/2000/svg" xmlns:xlink="http://www.w3.org/1999/xlink">
	<desc>
			Created with Pixso.
	</desc>
	<defs>
		<clipPath id="clip1_145">
			<rect id="streamline:travel-hotel-pet-paw-paw-foot-animals-pets-footprint-track" width="24.000000" height="24.000000" fill="white" fill-opacity="0"/>
		</clipPath>
	</defs>
	<rect id="streamline:travel-hotel-pet-paw-paw-foot-animals-pets-footprint-track" width="24.000000" height="24.000000" fill="#FFFFFF" fill-opacity="0"/>
	<g clip-path="url(#clip1_145)">
		<path id="Vector" d="M2.57 16.28C1.62 16.28 0.85 15.13 0.85 13.71C0.85 12.29 1.62 11.14 2.57 11.14C3.51 11.14 4.28 12.29 4.28 13.71C4.28 15.13 3.51 16.28 2.57 16.28Z" stroke="#DEE2E6" stroke-opacity="1.000000" stroke-width="1.714286" stroke-linejoin="round"/>
		<path id="Vector" d="M7.71 8.57C6.76 8.57 6 7.42 6 5.99C6 4.57 6.76 3.42 7.71 3.42C8.66 3.42 9.42 4.57 9.42 5.99C9.42 7.42 8.66 8.57 7.71 8.57Z" stroke="#DEE2E6" stroke-opacity="1.000000" stroke-width="1.714286" stroke-linejoin="round"/>
		<path id="Vector" d="M16.28 8.57C15.33 8.57 14.57 7.42 14.57 5.99C14.57 4.57 15.33 3.42 16.28 3.42C17.23 3.42 18 4.57 18 5.99C18 7.42 17.23 8.57 16.28 8.57Z" stroke="#DEE2E6" stroke-opacity="1.000000" stroke-width="1.714286" stroke-linejoin="round"/>
		<path id="Vector" d="M21.42 16.28C20.48 16.28 19.71 15.13 19.71 13.71C19.71 12.29 20.48 11.14 21.42 11.14C22.37 11.14 23.14 12.29 23.14 13.71C23.14 15.13 22.37 16.28 21.42 16.28Z" stroke="#DEE2E6" stroke-opacity="1.000000" stroke-width="1.714286" stroke-linejoin="round"/>
		<path id="Vector" d="M12 20.57C9.63 20.57 6.85 19.5 6.85 17.14C6.85 14.77 8.57 11.14 12 11.14C15.42 11.14 17.14 14.77 17.14 17.14C17.14 19.5 14.36 20.57 12 20.57Z" stroke="#DEE2E6" stroke-opacity="1.000000" stroke-width="1.714286" stroke-linejoin="round"/>
	</g>
</svg>
