<svg width="24.000000" height="24.000000" viewBox="0 0 24 24" fill="none" xmlns="http://www.w3.org/2000/svg" xmlns:xlink="http://www.w3.org/1999/xlink">
	<desc>
			Created with Pixso.
	</desc>
	<defs>
		<clipPath id="clip1_109">
			<rect id="ic:outline-pool" width="24.000000" height="24.000000" fill="white" fill-opacity="0"/>
		</clipPath>
	</defs>
	<rect id="ic:outline-pool" width="24.000000" height="24.000000" fill="#FFFFFF" fill-opacity="0"/>
	<g clip-path="url(#clip1_109)">
		<path id="Vector" d="M10 7.99L6.75 11.24C7.06 11.36 7.31 11.51 7.51 11.63C7.89 11.86 8.1 11.99 8.67 11.99C9.23 11.99 9.45 11.86 9.82 11.63C10.28 11.36 10.9 10.99 12.01 10.99C13.12 10.99 13.74 11.36 14.19 11.63C14.56 11.85 14.79 11.99 15.34 11.99C15.89 11.99 16.12 11.86 16.49 11.63C16.61 11.56 16.75 11.48 16.9 11.4L10.48 4.99C8.92 3.44 7.5 2.98 5 2.99L5 5.49C6.82 5.48 7.89 5.88 9 6.99L10 7.99ZM5.35 15.49C5.89 15.49 6.13 15.63 6.5 15.85C6.95 16.12 7.57 16.49 8.67 16.49C9.79 16.49 10.41 16.12 10.86 15.85C11.23 15.62 11.45 15.49 12.01 15.49C12.56 15.49 12.79 15.63 13.16 15.85C13.61 16.12 14.23 16.49 15.34 16.49C16.45 16.49 17.07 16.12 17.52 15.85C17.89 15.62 18.11 15.49 18.67 15.49C19.21 15.49 19.45 15.63 19.82 15.85C20.27 16.12 20.88 16.48 21.98 16.49L21.98 14.49C21.43 14.49 21.2 14.35 20.83 14.13C20.37 13.86 19.76 13.49 18.65 13.49C17.54 13.49 16.92 13.86 16.46 14.13C16.1 14.36 15.87 14.49 15.32 14.49C14.77 14.49 14.54 14.35 14.17 14.13C13.72 13.86 13.1 13.49 11.99 13.49C10.88 13.49 10.26 13.86 9.81 14.13C9.43 14.36 9.22 14.49 8.66 14.49C8.1 14.49 7.88 14.35 7.51 14.13C7.06 13.86 6.44 13.49 5.32 13.49C4.21 13.49 3.6 13.86 3.14 14.13C2.78 14.36 2.56 14.49 2 14.49L2 16.49C3.1 16.49 3.73 16.12 4.2 15.85C4.57 15.62 4.79 15.49 5.35 15.49ZM18.67 17.99C17.56 17.99 16.94 18.36 16.49 18.63C16.12 18.86 15.89 18.99 15.34 18.99C14.79 18.99 14.56 18.85 14.19 18.63C13.74 18.36 13.12 17.99 12.01 17.99C10.9 17.99 10.28 18.36 9.82 18.63C9.45 18.86 9.23 18.99 8.67 18.99C8.1 18.99 7.89 18.86 7.51 18.63C7.07 18.36 6.45 17.99 5.34 17.99C4.23 17.99 3.6 18.36 3.14 18.63C2.78 18.86 2.56 18.99 2 18.99L2 20.99C3.1 20.99 3.73 20.62 4.19 20.35C4.56 20.12 4.79 19.99 5.34 19.99C5.89 19.99 6.12 20.12 6.48 20.35C6.94 20.62 7.56 20.99 8.67 20.99C9.78 20.99 10.4 20.62 10.86 20.35C11.23 20.12 11.45 19.99 12.01 19.99C12.56 19.99 12.79 20.13 13.16 20.35C13.61 20.62 14.23 20.99 15.34 20.99C16.45 20.99 17.06 20.62 17.52 20.35C17.89 20.12 18.11 19.99 18.67 19.99C19.21 19.99 19.45 20.13 19.82 20.35C20.27 20.62 20.89 20.99 22 20.99L22 18.99C21.44 18.99 21.22 18.86 20.85 18.63C20.4 18.36 19.78 17.99 18.67 17.99Z" fill="#DEE2E6" fill-opacity="1.000000" fill-rule="nonzero"/>
		<path id="Vector" d="M19 5.5C19 6.88 17.88 8 16.5 8C15.11 8 14 6.88 14 5.5C14 4.11 15.11 3 16.5 3C17.88 3 19 4.11 19 5.5Z" fill="#DEE2E6" fill-opacity="1.000000" fill-rule="evenodd"/>
	</g>
</svg>
