<svg width="24.000000" height="24.000000" viewBox="0 0 24 24" fill="none" xmlns="http://www.w3.org/2000/svg" xmlns:xlink="http://www.w3.org/1999/xlink">
	<desc>
			Created with Pixso.
	</desc>
	<defs>
		<clipPath id="clip1_130">
			<rect id="ion:wifi" width="24.000000" height="24.000000" fill="white" fill-opacity="0"/>
		</clipPath>
	</defs>
	<rect id="ion:wifi" width="24.000000" height="24.000000" fill="#FFFFFF" fill-opacity="0"/>
	<g clip-path="url(#clip1_130)">
		<path id="Vector" d="M16.24 14.26C15.08 13.22 13.57 12.65 12.01 12.65C10.45 12.65 8.94 13.22 7.77 14.26C7.67 14.34 7.59 14.45 7.54 14.57C7.48 14.68 7.44 14.81 7.44 14.94C7.43 15.07 7.44 15.2 7.49 15.32C7.53 15.45 7.6 15.56 7.68 15.66C7.77 15.76 7.87 15.83 7.99 15.89C8.11 15.95 8.24 15.98 8.37 15.99C8.5 15.99 8.63 15.97 8.75 15.93C8.87 15.89 8.99 15.82 9.08 15.73C9.89 15.01 10.93 14.62 12.01 14.62C13.09 14.62 14.13 15.01 14.94 15.73C15.13 15.9 15.39 15.99 15.65 15.98C15.91 15.96 16.15 15.84 16.33 15.65C16.5 15.45 16.59 15.2 16.57 14.94C16.56 14.68 16.44 14.43 16.24 14.26L16.24 14.26Z" fill="#DEE2E6" fill-opacity="1.000000" fill-rule="nonzero"/>
		<path id="Vector" d="M12.01 8.61C9.37 8.6 6.82 9.61 4.89 11.41C4.79 11.5 4.72 11.61 4.66 11.73C4.6 11.84 4.57 11.97 4.57 12.1C4.56 12.24 4.58 12.37 4.63 12.49C4.67 12.61 4.74 12.72 4.83 12.82C4.92 12.92 5.03 12.99 5.15 13.05C5.27 13.1 5.4 13.13 5.53 13.13C5.66 13.13 5.79 13.11 5.91 13.06C6.03 13.02 6.14 12.94 6.24 12.85C7.8 11.39 9.87 10.57 12.01 10.57C14.15 10.57 16.21 11.39 17.78 12.85C17.87 12.94 17.98 13.02 18.11 13.06C18.23 13.11 18.36 13.13 18.49 13.13C18.62 13.13 18.75 13.1 18.87 13.05C18.99 12.99 19.1 12.92 19.19 12.82C19.28 12.72 19.34 12.61 19.39 12.49C19.44 12.37 19.46 12.24 19.45 12.1C19.44 11.97 19.41 11.84 19.36 11.73C19.3 11.61 19.22 11.5 19.12 11.41C17.2 9.61 14.65 8.6 12.01 8.61Z" fill="#DEE2E6" fill-opacity="1.000000" fill-rule="nonzero"/>
		<path id="Vector" d="M21.65 8.24C19 5.87 15.56 4.56 12.01 4.56C8.45 4.56 5.02 5.87 2.36 8.24C2.27 8.32 2.18 8.43 2.12 8.55C2.07 8.66 2.03 8.79 2.02 8.92C2.01 9.05 2.03 9.18 2.07 9.31C2.12 9.43 2.18 9.55 2.27 9.64C2.36 9.74 2.46 9.82 2.58 9.88C2.7 9.93 2.83 9.96 2.96 9.97C3.09 9.98 3.22 9.96 3.35 9.91C3.47 9.86 3.58 9.79 3.68 9.71C5.97 7.66 8.94 6.53 12.01 6.53C15.08 6.53 18.05 7.66 20.34 9.71C20.53 9.88 20.79 9.97 21.05 9.95C21.31 9.94 21.55 9.82 21.73 9.63C21.9 9.43 21.99 9.18 21.98 8.92C21.96 8.66 21.85 8.41 21.65 8.24L21.65 8.24Z" fill="#DEE2E6" fill-opacity="1.000000" fill-rule="nonzero"/>
		<path id="Vector" d="M13.51 18.44C13.51 19.26 12.84 19.94 12.01 19.94C11.18 19.94 10.51 19.26 10.51 18.44C10.51 17.61 11.18 16.94 12.01 16.94C12.84 16.94 13.51 17.61 13.51 18.44Z" fill="#DEE2E6" fill-opacity="1.000000" fill-rule="evenodd"/>
	</g>
</svg>
