<svg width="24.000000" height="24.000000" viewBox="0 0 24 24" fill="none" xmlns="http://www.w3.org/2000/svg" xmlns:xlink="http://www.w3.org/1999/xlink">
	<desc>
			Created with Pixso.
	</desc>
	<defs>
		<clipPath id="clip1_97">
			<rect id="cil:bathroom" width="24.000000" height="24.000000" fill="white" fill-opacity="0"/>
		</clipPath>
	</defs>
	<rect id="cil:bathroom" width="24.000000" height="24.000000" fill="#FFFFFF" fill-opacity="0"/>
	<g clip-path="url(#clip1_97)">
		<path id="Vector" d="M21.75 13.12L3.75 13.12L3.75 4.68C3.74 4.36 3.81 4.05 3.93 3.76C4.05 3.46 4.23 3.2 4.45 2.97L4.47 2.95C4.83 2.6 5.28 2.37 5.77 2.28C6.26 2.2 6.77 2.26 7.22 2.48C6.79 3.19 6.62 4.02 6.72 4.84C6.82 5.66 7.19 6.42 7.77 7.01L8.28 7.52L7.34 8.46L8.4 9.53L9.35 8.58L14.58 3.35L15.53 2.4L14.46 1.34L13.52 2.28L13.01 1.77C12.39 1.16 11.58 0.78 10.72 0.7C9.85 0.63 8.99 0.86 8.28 1.35C7.52 0.88 6.63 0.67 5.75 0.77C4.86 0.87 4.04 1.26 3.41 1.89L3.39 1.91C3.03 2.27 2.74 2.71 2.54 3.18C2.34 3.66 2.24 4.17 2.25 4.68L2.25 13.12L0.75 13.12L0.75 14.62L2.25 14.62L2.25 16.06C2.24 16.18 2.26 16.3 2.3 16.41L3.7 20.6C3.77 20.82 3.92 21.02 4.11 21.16C4.3 21.3 4.53 21.37 4.77 21.37L5.37 21.37L4.82 23.25L6.39 23.25L6.93 21.37L16.69 21.37L17.25 23.25L18.82 23.25L18.25 21.37L19.22 21.37C19.46 21.37 19.69 21.3 19.88 21.16C20.07 21.02 20.22 20.82 20.29 20.6L21.69 16.41C21.73 16.3 21.75 16.18 21.75 16.06L21.75 14.62L23.25 14.62L23.25 13.12L21.75 13.12ZM8.83 2.83C9.25 2.42 9.81 2.19 10.39 2.19C10.97 2.19 11.53 2.42 11.95 2.83L12.46 3.35L9.35 6.46L8.83 5.95C8.42 5.53 8.19 4.97 8.19 4.39C8.19 3.81 8.42 3.25 8.83 2.83ZM20.25 16L18.95 19.87L5.04 19.87L3.75 16L3.75 14.62L20.25 14.62L20.25 16Z" fill="#DEE2E6" fill-opacity="1.000000" fill-rule="nonzero"/>
	</g>
</svg>
