<svg width="24.000000" height="24.000000" viewBox="0 0 24 24" fill="none" xmlns="http://www.w3.org/2000/svg" xmlns:xlink="http://www.w3.org/1999/xlink">
	<desc>
			Created with Pixso.
	</desc>
	<defs>
		<clipPath id="clip1_77">
			<rect id="ic:round-people" width="24.000000" height="24.000000" fill="white" fill-opacity="0"/>
		</clipPath>
	</defs>
	<rect id="ic:round-people" width="24.000000" height="24.000000" fill="#FFFFFF" fill-opacity="0"/>
	<g clip-path="url(#clip1_77)">
		<path id="Vector" d="M16 11C17.66 11 18.99 9.65 18.99 8C18.99 6.34 17.66 5 16 5C14.34 5 13 6.34 13 8C13 9.65 14.34 11 16 11ZM8 11C9.66 11 10.99 9.65 10.99 8C10.99 6.34 9.66 5 8 5C6.34 5 5 6.34 5 8C5 9.65 6.34 11 8 11ZM8 13C5.67 13 1 14.17 1 16.5L1 18C1 18.54 1.45 19 2 19L14 19C14.55 19 15 18.54 15 18L15 16.5C15 14.17 10.33 13 8 13ZM16 13C15.71 13 15.38 13.02 15.03 13.05C15.05 13.06 15.06 13.08 15.07 13.09C16.2 13.92 17 15.03 17 16.5L17 18C17 18.35 16.93 18.69 16.82 19L22 19C22.55 19 23 18.54 23 18L23 16.5C23 14.17 18.33 13 16 13Z" fill="#DEE2E6" fill-opacity="1.000000" fill-rule="nonzero"/>
	</g>
</svg>
