<svg width="102.000000" height="32.000000" viewBox="0 0 102 32" fill="none" xmlns="http://www.w3.org/2000/svg" xmlns:xlink="http://www.w3.org/1999/xlink">
	<desc>
			Created with Pixso.
	</desc>
	<defs>
		<clipPath id="clip1_5">
			<rect id="Link - Airbnb Homepage → SVG" width="102.000000" height="32.000000" fill="white" fill-opacity="0"/>
		</clipPath>
	</defs>
	<g clip-path="url(#clip1_5)">
		<path id="Vector" d="M29.38 22.71C29.24 22.3 29.07 21.91 28.91 21.55C28.67 21 28.41 20.44 28.16 19.9L28.14 19.86C25.92 15.05 23.54 10.18 21.06 5.38L20.96 5.18C20.7 4.69 20.44 4.18 20.17 3.68C19.86 3.05 19.47 2.46 19.02 1.91C18.52 1.31 17.89 0.83 17.18 0.5C16.47 0.17 15.7 0 14.91 0C14.13 0 13.35 0.17 12.64 0.5C11.93 0.83 11.3 1.31 10.8 1.91C10.35 2.46 9.97 3.05 9.65 3.68C9.38 4.19 9.12 4.7 8.86 5.19L8.76 5.38C6.29 10.18 3.9 15.05 1.69 19.86L1.65 19.93C1.41 20.46 1.16 21.01 0.91 21.55C0.75 21.91 0.59 22.3 0.44 22.71C0.03 23.81 -0.1 24.99 0.06 26.15C0.23 27.33 0.71 28.44 1.44 29.38C2.17 30.31 3.14 31.04 4.24 31.49C5.07 31.82 5.96 32 6.86 32C7.14 32 7.43 31.98 7.71 31.95C8.84 31.8 9.94 31.43 10.93 30.86C12.23 30.13 13.51 29.06 14.91 27.53C16.31 29.06 17.6 30.13 18.9 30.86C19.89 31.43 20.98 31.8 22.12 31.95C22.4 31.98 22.68 32 22.96 32C23.86 32 24.75 31.82 25.58 31.49C26.69 31.04 27.65 30.31 28.38 29.38C29.12 28.44 29.59 27.33 29.76 26.15C29.92 24.99 29.79 23.81 29.38 22.71ZM14.91 24.37C13.18 22.17 12.06 20.13 11.67 18.42C11.51 17.77 11.47 17.11 11.56 16.45C11.63 15.97 11.81 15.51 12.08 15.11C12.41 14.68 12.84 14.33 13.33 14.08C13.82 13.84 14.36 13.72 14.91 13.72C15.46 13.72 16 13.84 16.49 14.08C16.98 14.33 17.41 14.68 17.75 15.11C18.02 15.51 18.2 15.97 18.26 16.45C18.35 17.11 18.31 17.78 18.15 18.42C17.76 20.13 16.65 22.17 14.91 24.37ZM27.74 25.86C27.62 26.69 27.28 27.46 26.77 28.12C26.26 28.77 25.58 29.28 24.81 29.59C24.03 29.91 23.19 30.02 22.36 29.92C21.49 29.8 20.65 29.52 19.9 29.08C18.75 28.43 17.57 27.43 16.26 25.97C18.35 23.38 19.66 21 20.15 18.87C20.37 17.98 20.41 17.05 20.29 16.14C20.17 15.36 19.88 14.61 19.44 13.95C18.91 13.25 18.23 12.67 17.45 12.28C16.66 11.88 15.79 11.67 14.91 11.67C14.03 11.67 13.16 11.88 12.38 12.28C11.59 12.67 10.91 13.25 10.39 13.95C9.94 14.61 9.65 15.36 9.54 16.14C9.41 17.05 9.46 17.98 9.68 18.87C10.16 20.99 11.47 23.38 13.57 25.97C12.25 27.43 11.08 28.43 9.92 29.08C9.17 29.52 8.34 29.8 7.47 29.92C6.64 30.02 5.79 29.91 5.01 29.59C4.24 29.28 3.57 28.77 3.05 28.12C2.54 27.46 2.21 26.69 2.09 25.86C1.97 25.03 2.07 24.18 2.37 23.39C2.49 23.07 2.62 22.75 2.79 22.38C3.02 21.85 3.27 21.31 3.51 20.78L3.54 20.71C5.75 15.94 8.12 11.09 10.58 6.32L10.68 6.13C10.93 5.64 11.19 5.14 11.45 4.65C11.71 4.15 12.01 3.68 12.36 3.24C12.67 2.86 13.06 2.56 13.5 2.35C13.94 2.15 14.42 2.04 14.91 2.04C15.4 2.04 15.88 2.15 16.32 2.35C16.76 2.56 17.15 2.86 17.47 3.24C17.82 3.68 18.12 4.15 18.37 4.65C18.63 5.13 18.89 5.63 19.13 6.11L19.24 6.32C21.7 11.09 24.07 15.94 26.28 20.72L26.3 20.76C26.54 21.29 26.8 21.84 27.04 22.38C27.2 22.75 27.34 23.07 27.45 23.39C27.75 24.18 27.85 25.03 27.74 25.86Z" fill="#FF385C" fill-opacity="1.000000" fill-rule="nonzero"/>
		<path id="Vector" d="M41.68 24.11C40.88 24.11 40.15 23.95 39.47 23.63C38.8 23.31 38.23 22.87 37.72 22.29C37.2 21.71 36.82 21.04 36.53 20.3C36.25 19.53 36.12 18.7 36.12 17.8C36.12 16.91 36.28 16.04 36.57 15.27C36.85 14.51 37.27 13.83 37.78 13.22C38.29 12.65 38.9 12.17 39.6 11.85C40.31 11.53 41.04 11.37 41.87 11.37C42.67 11.37 43.37 11.53 44.01 11.88C44.65 12.2 45.16 12.68 45.58 13.29L45.68 11.72L48.62 11.72L48.62 23.79L45.68 23.79L45.58 22.03C45.16 22.67 44.62 23.19 43.92 23.57C43.28 23.92 42.51 24.11 41.68 24.11ZM42.45 21.23C43.02 21.23 43.53 21.07 44.01 20.78C44.46 20.46 44.81 20.05 45.1 19.53C45.36 19.02 45.48 18.41 45.48 17.74C45.48 17.07 45.36 16.46 45.1 15.95C44.84 15.43 44.46 15.02 44.01 14.7C43.57 14.38 43.02 14.25 42.45 14.25C41.87 14.25 41.36 14.41 40.88 14.7C40.43 15.02 40.08 15.43 39.79 15.95C39.54 16.46 39.41 17.07 39.41 17.74C39.41 18.41 39.54 19.02 39.79 19.53C40.05 20.05 40.43 20.46 40.88 20.78C41.36 21.07 41.87 21.23 42.45 21.23ZM53.63 8.45C53.63 8.8 53.57 9.12 53.41 9.38C53.25 9.64 53.03 9.86 52.74 10.02C52.45 10.18 52.13 10.24 51.81 10.24C51.49 10.24 51.17 10.18 50.89 10.02C50.6 9.86 50.37 9.64 50.21 9.38C50.05 9.09 49.99 8.8 49.99 8.45C49.99 8.1 50.05 7.78 50.21 7.52C50.37 7.23 50.6 7.04 50.89 6.88C51.17 6.72 51.49 6.66 51.81 6.66C52.13 6.66 52.45 6.72 52.74 6.88C53.03 7.04 53.25 7.27 53.41 7.52C53.54 7.78 53.63 8.07 53.63 8.45ZM50.21 23.76L50.21 11.69L53.41 11.69L53.41 23.76L50.21 23.76ZM61.94 14.86L61.94 14.89C61.79 14.83 61.59 14.79 61.43 14.76C61.24 14.73 61.08 14.73 60.89 14.73C60 14.73 59.32 14.99 58.88 15.53C58.4 16.07 58.17 16.84 58.17 17.84L58.17 23.76L54.98 23.76L54.98 11.69L57.92 11.69L58.01 13.51C58.33 12.87 58.72 12.39 59.26 12.04C59.77 11.69 60.38 11.53 61.08 11.53C61.31 11.53 61.53 11.56 61.72 11.59C61.82 11.62 61.88 11.62 61.94 11.65L61.94 14.86ZM63.22 23.76L63.22 6.72L66.42 6.72L66.42 13.22C66.87 12.65 67.38 12.2 68.02 11.85C68.66 11.53 69.36 11.33 70.16 11.33C70.96 11.33 71.69 11.49 72.36 11.81C73.04 12.13 73.61 12.58 74.12 13.16C74.63 13.74 75.02 14.41 75.31 15.15C75.59 15.91 75.72 16.75 75.72 17.64C75.72 18.54 75.56 19.41 75.27 20.17C74.99 20.94 74.57 21.62 74.06 22.22C73.55 22.8 72.94 23.28 72.24 23.6C71.53 23.92 70.8 24.08 69.97 24.08C69.17 24.08 68.47 23.92 67.83 23.57C67.19 23.25 66.68 22.77 66.26 22.16L66.16 23.73L63.22 23.76ZM69.39 21.23C69.97 21.23 70.48 21.07 70.96 20.78C71.41 20.46 71.76 20.05 72.05 19.53C72.3 19.02 72.43 18.41 72.43 17.74C72.43 17.07 72.3 16.46 72.05 15.95C71.76 15.43 71.41 15.02 70.96 14.7C70.51 14.38 69.97 14.25 69.39 14.25C68.82 14.25 68.31 14.41 67.83 14.7C67.38 15.02 67.03 15.43 66.74 15.95C66.48 16.46 66.36 17.07 66.36 17.74C66.36 18.41 66.48 19.02 66.74 19.53C67 20.05 67.38 20.46 67.83 20.78C68.31 21.07 68.82 21.23 69.39 21.23ZM76.94 23.76L76.94 11.69L79.88 11.69L79.97 13.26C80.32 12.68 80.8 12.23 81.41 11.88C82.02 11.53 82.72 11.37 83.52 11.37C84.42 11.37 85.18 11.59 85.82 12.01C86.49 12.42 87 13.03 87.36 13.8C87.71 14.57 87.9 15.5 87.9 16.56L87.9 23.79L84.7 23.79L84.7 16.97C84.7 16.14 84.51 15.47 84.13 14.99C83.74 14.51 83.23 14.25 82.56 14.25C82.08 14.25 81.67 14.34 81.28 14.57C80.93 14.79 80.64 15.08 80.42 15.5C80.2 15.88 80.1 16.36 80.1 16.84L80.1 23.76L76.94 23.76ZM89.5 23.76L89.5 6.72L92.69 6.72L92.69 13.22C93.14 12.65 93.65 12.2 94.29 11.85C94.93 11.53 95.63 11.33 96.43 11.33C97.23 11.33 97.97 11.49 98.64 11.81C99.31 12.13 99.89 12.58 100.4 13.16C100.91 13.74 101.29 14.41 101.58 15.15C101.87 15.91 102 16.75 102 17.64C102 18.54 101.84 19.41 101.55 20.17C101.26 20.94 100.85 21.62 100.33 22.22C99.82 22.8 99.21 23.28 98.51 23.6C97.81 23.92 97.07 24.08 96.24 24.08C95.44 24.08 94.74 23.92 94.1 23.57C93.46 23.25 92.95 22.77 92.53 22.16L92.44 23.73L89.5 23.76ZM95.7 21.23C96.27 21.23 96.79 21.07 97.26 20.78C97.71 20.46 98.06 20.05 98.35 19.53C98.61 19.02 98.74 18.41 98.74 17.74C98.74 17.07 98.61 16.46 98.35 15.95C98.1 15.43 97.71 15.02 97.26 14.7C96.82 14.38 96.27 14.25 95.7 14.25C95.12 14.25 94.61 14.41 94.13 14.7C93.68 15.02 93.33 15.43 93.05 15.95C92.76 16.46 92.66 17.07 92.66 17.74C92.66 18.41 92.79 19.02 93.05 19.53C93.3 20.05 93.68 20.46 94.13 20.78C94.61 21.07 95.09 21.23 95.7 21.23Z" fill="#FF385C" fill-opacity="1.000000" fill-rule="nonzero"/>
	</g>
</svg>
